<svg xmlns="http://www.w3.org/2000/svg" xmlns:xlink="http://www.w3.org/1999/xlink" width="500" zoomAndPan="magnify" viewBox="0 0 375 374.999991" height="500" preserveAspectRatio="xMidYMid meet" version="1.0"><defs><g/><clipPath id="c4cea01379"><path d="M 120 160.261719 L 174.699219 160.261719 L 174.699219 215 L 120 215 Z M 120 160.261719 " clip-rule="nonzero"/></clipPath></defs><rect x="-37.5" width="450" fill="#ffffff" y="-37.499999" height="449.999989" fill-opacity="1"/><rect x="-37.5" width="450" fill="#ffffff" y="-37.499999" height="449.999989" fill-opacity="1"/><g clip-path="url(#c4cea01379)"><path fill="#ff6600" d="M 174.699219 187.496094 C 174.699219 172.476562 162.480469 160.261719 147.464844 160.261719 C 132.445312 160.261719 120.230469 172.476562 120.230469 187.496094 C 120.230469 202.511719 132.445312 214.730469 147.464844 214.730469 C 162.480469 214.730469 174.699219 202.511719 174.699219 187.496094 Z M 132.1875 187.496094 C 132.1875 176.699219 135.472656 168.558594 139.828125 168.558594 C 142.082031 168.558594 144.097656 170.757812 145.511719 174.664062 C 148.390625 169.175781 152.523438 170.453125 154.625 176.230469 C 155.382812 175.195312 156.296875 174.574219 157.359375 174.574219 C 160.851562 174.574219 162.738281 181.230469 162.738281 187.496094 C 162.738281 193.757812 160.851562 200.414062 157.359375 200.414062 C 156.296875 200.414062 155.382812 199.796875 154.625 198.757812 C 153.394531 202.011719 151.65625 203.84375 149.722656 203.84375 C 148.246094 203.84375 146.726562 202.640625 145.511719 200.324219 C 144.097656 204.230469 142.082031 206.429688 139.828125 206.429688 C 135.472656 206.429688 132.1875 198.289062 132.1875 187.496094 Z M 161.070312 187.496094 C 160.980469 197.179688 157.007812 203.175781 154.519531 194.488281 C 153.367188 190.558594 153.367188 184.425781 154.519531 180.496094 C 157.007812 171.8125 160.980469 177.8125 161.070312 187.496094 Z M 146.183594 177.363281 C 147.117188 174.539062 148.488281 172.800781 149.722656 172.8125 C 151.109375 172.8125 152.558594 174.882812 153.535156 178.230469 C 152.929688 179.742188 152.554688 181.339844 152.3125 182.957031 C 151.679688 187.546875 151.875 192.398438 153.535156 196.757812 C 151.617188 203.316406 148.417969 204.207031 146.183594 197.628906 C 144.242188 191.9375 144.242188 183.050781 146.183594 177.363281 Z M 139.828125 204.761719 C 137.003906 204.761719 133.855469 197.667969 133.855469 187.496094 C 133.855469 177.320312 137.003906 170.226562 139.828125 170.226562 C 141.570312 170.226562 143.355469 172.824219 144.515625 177.027344 C 142.605469 181.941406 142.609375 193.046875 144.515625 197.960938 C 143.355469 202.164062 141.570312 204.761719 139.828125 204.761719 Z M 139.828125 204.761719 " fill-opacity="1" fill-rule="nonzero"/></g><g fill="#000000" fill-opacity="1"><g transform="translate(180.867355, 184.930637)"><g><path d="M 6.019531 0.078125 C 7.511719 0.078125 10.359375 0.078125 11.675781 0 C 11.945312 -0.0195312 12.078125 -0.171875 12.078125 -0.402344 C 12.039062 -1.128906 11.925781 -3.574219 11.828125 -4.300781 C 11.773438 -4.816406 11.238281 -4.855469 11.027344 -4.414062 C 10.1875 -2.886719 9.230469 -2.253906 6.707031 -2.253906 C 4.929688 -2.253906 3.285156 -2.808594 3.285156 -4.375 L 3.285156 -4.890625 C 3.285156 -6.113281 4.414062 -6.535156 5.695312 -6.535156 C 6.726562 -6.554688 8.007812 -6.402344 8.695312 -5.925781 C 9.019531 -5.636719 9.363281 -5.734375 9.363281 -6.152344 L 9.363281 -7.910156 C 9.363281 -8.179688 9.117188 -8.410156 8.828125 -8.371094 C 7.910156 -8.253906 6.535156 -8.199219 5.542969 -8.199219 C 4.089844 -8.199219 3.304688 -8.675781 3.304688 -9.480469 L 3.304688 -9.652344 C 3.304688 -10.757812 4.585938 -11.199219 6.210938 -11.199219 C 8.445312 -11.199219 9.746094 -10.664062 10.433594 -9.59375 C 10.722656 -9.132812 11.21875 -9.25 11.199219 -9.765625 C 11.179688 -10.359375 11.101562 -12.289062 11.046875 -12.917969 C 11.007812 -13.222656 10.835938 -13.359375 10.546875 -13.378906 C 9.363281 -13.453125 7.472656 -13.453125 6.019531 -13.453125 C 4.71875 -13.453125 2.0625 -13.433594 1.433594 -13.378906 C 1.164062 -13.359375 0.9375 -13.222656 0.917969 -12.9375 C 0.6875 -9.59375 0.554688 -4.300781 0.535156 -0.476562 C 0.535156 -0.191406 0.746094 -0.0195312 1.050781 0 C 1.816406 0.0585938 4.664062 0.078125 6.019531 0.078125 Z M 6.019531 0.078125 "/></g></g></g><g fill="#000000" fill-opacity="1"><g transform="translate(193.359816, 184.930637)"><g><path d="M 7.050781 0.132812 C 8.390625 0.132812 10.664062 -0.171875 11.734375 -0.648438 C 11.925781 -0.765625 12.097656 -0.992188 12.078125 -1.28125 C 12.039062 -2.3125 12 -3.34375 11.945312 -4.375 C 11.90625 -4.910156 11.351562 -5.007812 11.140625 -4.546875 C 10.394531 -3.058594 8.90625 -2.332031 7.050781 -2.332031 C 5.027344 -2.332031 3.324219 -3.382812 3.324219 -6.304688 C 3.324219 -9.402344 4.910156 -11.101562 6.917969 -11.101562 C 8.847656 -11.101562 9.898438 -10.242188 10.585938 -9 C 10.777344 -8.597656 11.273438 -8.675781 11.3125 -9.078125 C 11.351562 -9.480469 11.484375 -11.5625 11.503906 -11.90625 C 11.523438 -12.171875 11.445312 -12.402344 11.238281 -12.535156 C 10.148438 -13.070312 8.503906 -13.53125 6.957031 -13.53125 C 3.097656 -13.53125 0.382812 -10.703125 0.382812 -6.191406 C 0.382812 -1.71875 3.171875 0.132812 7.050781 0.132812 Z M 7.050781 0.132812 "/></g></g></g><g fill="#000000" fill-opacity="1"><g transform="translate(205.871378, 184.930637)"><g><path d="M 2.140625 0.078125 C 2.371094 0.078125 3.113281 0.0585938 3.457031 0.0195312 C 3.707031 -0.0390625 3.9375 -0.25 3.878906 -0.574219 C 3.707031 -1.855469 3.574219 -3.113281 3.574219 -4.300781 C 3.574219 -5.253906 4.261719 -5.503906 5.40625 -5.542969 C 5.925781 -5.5625 6.839844 -5.5625 7.355469 -5.542969 C 8.523438 -5.503906 9.289062 -5.253906 9.289062 -4.300781 C 9.289062 -3.097656 9.132812 -1.835938 8.960938 -0.574219 C 8.90625 -0.25 9.132812 -0.0390625 9.402344 0.0195312 C 9.726562 0.0585938 10.472656 0.078125 10.703125 0.078125 C 10.949219 0.078125 11.445312 0.0585938 11.847656 0 C 12.097656 -0.0390625 12.34375 -0.230469 12.34375 -0.535156 C 12.34375 -4.96875 12.230469 -10.070312 11.980469 -12.917969 C 11.960938 -13.203125 11.773438 -13.359375 11.503906 -13.414062 C 11.179688 -13.472656 10.894531 -13.472656 10.664062 -13.472656 C 10.414062 -13.472656 9.957031 -13.472656 9.574219 -13.414062 C 9.304688 -13.378906 9.097656 -13.167969 9.117188 -12.878906 C 9.210938 -11.789062 9.324219 -10.722656 9.324219 -9.289062 C 9.324219 -8.273438 8.484375 -8.027344 7.339844 -7.988281 C 6.824219 -7.96875 5.941406 -7.96875 5.425781 -7.988281 C 4.300781 -8.027344 3.535156 -8.273438 3.535156 -9.289062 C 3.535156 -10.722656 3.632812 -11.773438 3.746094 -12.859375 C 3.765625 -13.128906 3.574219 -13.320312 3.285156 -13.378906 C 2.960938 -13.433594 2.542969 -13.453125 2.214844 -13.453125 C 1.949219 -13.453125 1.71875 -13.453125 1.355469 -13.378906 C 1.089844 -13.339844 0.917969 -13.1875 0.878906 -12.898438 C 0.628906 -10.03125 0.535156 -4.96875 0.535156 -0.535156 C 0.535156 -0.230469 0.765625 -0.0390625 1.011719 0 C 1.414062 0.0585938 1.890625 0.078125 2.140625 0.078125 Z M 2.140625 0.078125 "/></g></g></g><g fill="#000000" fill-opacity="1"><g transform="translate(218.726766, 184.930637)"><g><path d="M 6.824219 0.152344 C 10.644531 0.152344 13.300781 -1.664062 13.300781 -6.171875 C 13.300781 -10.664062 10.683594 -13.53125 6.824219 -13.53125 C 2.980469 -13.53125 0.363281 -10.664062 0.363281 -6.171875 C 0.363281 -1.664062 3.039062 0.152344 6.824219 0.152344 Z M 6.839844 -2.371094 C 4.890625 -2.371094 3.382812 -3.421875 3.382812 -6.324219 C 3.382812 -9.152344 4.816406 -11.007812 6.839844 -11.007812 C 8.847656 -11.007812 10.300781 -9.152344 10.300781 -6.324219 C 10.300781 -3.421875 8.789062 -2.371094 6.839844 -2.371094 Z M 6.839844 -2.371094 "/></g></g></g><g fill="#000000" fill-opacity="1"><g transform="translate(180.867355, 205.088262)"><g><path d="M 1.816406 0.078125 C 2.253906 0.078125 2.90625 0.0585938 3.230469 0 C 3.421875 -0.0390625 3.613281 -0.152344 3.613281 -0.382812 C 3.574219 -1.164062 3.707031 -1.96875 3.898438 -2.578125 C 4.203125 -3.039062 4.757812 -3.363281 5.695312 -3.402344 C 6.289062 -3.421875 7.089844 -3.421875 7.683594 -3.402344 C 8.597656 -3.382812 9.210938 -3.058594 9.496094 -2.578125 C 9.6875 -1.910156 9.804688 -1.148438 9.785156 -0.382812 C 9.785156 -0.152344 9.957031 -0.0390625 10.128906 0 C 10.492188 0.0585938 11.21875 0.078125 11.429688 0.078125 C 11.601562 0.078125 12.402344 0.0585938 12.671875 0.0195312 C 13.015625 -0.0195312 13.167969 -0.230469 13.03125 -0.535156 C 11.789062 -5.082031 9.9375 -9.9375 8.351562 -13.050781 C 8.253906 -13.222656 8.082031 -13.339844 7.875 -13.378906 C 7.453125 -13.453125 6.996094 -13.453125 6.6875 -13.453125 C 6.382812 -13.453125 5.90625 -13.453125 5.523438 -13.378906 C 5.292969 -13.339844 5.140625 -13.222656 5.046875 -13.050781 C 3.457031 -9.9375 1.585938 -5.101562 0.34375 -0.554688 C 0.210938 -0.25 0.382812 -0.0585938 0.726562 0 C 0.992188 0.0585938 1.453125 0.078125 1.816406 0.078125 Z M 6.269531 -4.890625 C 5.351562 -4.929688 4.96875 -5.3125 5.21875 -5.980469 C 5.445312 -7.128906 5.789062 -8.238281 6.210938 -9.480469 C 6.515625 -10.203125 6.839844 -10.203125 7.148438 -9.480469 C 7.566406 -8.238281 7.949219 -7.109375 8.179688 -5.980469 C 8.410156 -5.332031 8.027344 -4.929688 7.109375 -4.890625 C 6.898438 -4.875 6.476562 -4.875 6.269531 -4.890625 Z M 6.269531 -4.890625 "/></g></g></g><g fill="#000000" fill-opacity="1"><g transform="translate(194.238494, 205.088262)"><g><path d="M 2.121094 0.078125 C 2.390625 0.078125 2.886719 0.0585938 3.230469 0.0195312 C 3.476562 -0.0390625 3.707031 -0.230469 3.707031 -0.535156 C 3.707031 -4.96875 3.515625 -10.03125 3.421875 -12.898438 C 3.402344 -13.148438 3.210938 -13.320312 2.960938 -13.378906 C 2.734375 -13.433594 2.371094 -13.453125 2.160156 -13.453125 C 1.949219 -13.453125 1.527344 -13.433594 1.261719 -13.378906 C 0.992188 -13.320312 0.800781 -13.167969 0.785156 -12.898438 C 0.6875 -10.03125 0.515625 -4.96875 0.515625 -0.535156 C 0.515625 -0.230469 0.726562 -0.0390625 0.992188 0 C 1.335938 0.0585938 1.855469 0.078125 2.121094 0.078125 Z M 2.121094 0.078125 "/></g></g></g></svg>